<svg id="Logo_Sinerlog_C2aaS" xmlns="http://www.w3.org/2000/svg" width="159.435" height="40.042" viewBox="0 0 159.435 40.042">
  <g id="Grupo_3358" data-name="Grupo 3358">
    <path id="Caminho_8749" data-name="Caminho 8749" d="M17.279,241.59H0v29.934l17.279,9.982Z" transform="translate(0 -241.585)" fill="#00707e"/>
    <path id="Caminho_8750" data-name="Caminho 8750" d="M31.42,241.59H48.7v29.934L31.42,281.505Z" transform="translate(-14.141 -241.585)" fill="#00545c"/>
    <path id="Caminho_8751" data-name="Caminho 8751" d="M0,251.545l17.252,9.96V241.58Z" transform="translate(0 -241.58)" fill="#00545c"/>
    <path id="Caminho_8752" data-name="Caminho 8752" d="M79.643,268c-2.59-.9-4.042-1.49-3.784-3.36s1.936-3.124,4.174-3.124A3.759,3.759,0,0,1,84,264.454l.143.528,2.277-1.171-.121-.423a5.784,5.784,0,0,0-5.934-4.268c-3.657,0-6.533,2.293-7,5.571-.506,3.624,2.392,4.609,5.538,5.681,2.926.973,4.268,1.749,4.02,3.547-.286,2.04-2.035,3.256-4.68,3.256s-4.361-1.215-4.686-3.426l-.093-.632-2.337,1.27.071.39c.55,3,3.058,4.8,6.709,4.8,4.009,0,7.017-2.282,7.49-5.681.517-3.712-2.827-4.873-5.774-5.9" transform="translate(-32.012 -249.474)" fill="#00545c"/>
    <path id="Caminho_8753" data-name="Caminho 8753" d="M226.418,259.11a12.008,12.008,0,0,0-11.653,10.229c-.8,5.736,3.069,10.229,8.8,10.229a12.008,12.008,0,0,0,11.653-10.229c.8-5.736-3.069-10.229-8.8-10.229m6.352,10.229a9.163,9.163,0,0,1-8.871,7.831,6.572,6.572,0,0,1-6.687-7.831,9.168,9.168,0,0,1,8.871-7.831,6.574,6.574,0,0,1,6.687,7.831" transform="translate(-96.609 -249.469)" fill="#00545c"/>
    <path id="Caminho_8754" data-name="Caminho 8754" d="M101.311,261.434,98.77,279.676h2.447l2.744-19.666Z" transform="translate(-44.452 -249.875)" fill="#00545c"/>
    <path id="Caminho_8755" data-name="Caminho 8755" d="M142.107,277.144l.9-6.456h3.349l4.4-2.37h-7.419l.88-6.3H153.5l.33-2.37H142.1l-2.766,19.864H151.2l.33-2.37Z" transform="translate(-62.706 -249.712)" fill="#00545c"/>
    <path id="Caminho_8756" data-name="Caminho 8756" d="M122.8,261.2l-1.886,13.523-8.26-15.069h-2.018l-2.772,19.864h2.447l2.1-15.068,8.238,15.068h2.046l2.75-19.743Z" transform="translate(-48.543 -249.712)" fill="#00545c"/>
    <path id="Caminho_8757" data-name="Caminho 8757" d="M175.462,271.375a7.285,7.285,0,0,0,4.68-5.642,5.175,5.175,0,0,0-5.235-6.082h-7.941L164.21,279.4l2.651-1.424.863-6.187h5.142l3.443,7.727h2.832Zm-7.408-1.952,1.034-7.4h5.488a3.131,3.131,0,0,1,3.118,3.712,4.353,4.353,0,0,1-4.147,3.685H168.06Z" transform="translate(-73.904 -249.712)" fill="#00545c"/>
    <path id="Caminho_8758" data-name="Caminho 8758" d="M196.613,277.216l2.425-17.406-2.645,1.424-2.563,18.352h11.334l.33-2.37Z" transform="translate(-87.234 -249.785)" fill="#00545c"/>
    <path id="Caminho_8759" data-name="Caminho 8759" d="M266.794,269.475l-.011.093h0l-4.114,2.216-.011.06h7.925a7.846,7.846,0,0,1-7.809,5.329c-4.614,0-7.507-3.294-6.874-7.831a9.1,9.1,0,0,1,8.948-7.831,6.087,6.087,0,0,1,5.873,3.657l.181.478,2.343-1.287-.193-.434a8.325,8.325,0,0,0-7.875-4.807,11.909,11.909,0,0,0-11.736,10.229c-.814,5.829,3.052,10.229,8.992,10.229,5.565,0,10.13-3.723,10.845-8.854l.17-1.237h-6.66Z" transform="translate(-114.014 -249.474)" fill="#00545c"/>
    <path id="Caminho_8760" data-name="Caminho 8760" d="M7.931,269.5a.567.567,0,0,0-.148,1.116V282.33l-2.216-2.189V274.8a.53.53,0,0,0,.4-.511.539.539,0,1,0-.7.506v5.472l2.519,2.491V285.9l-.9.9.269.154.929-.929L8.1,270.611a.567.567,0,0,0,.407-.539.575.575,0,0,0-.572-.572" transform="translate(-2.201 -254.146)" fill="#fff"/>
    <path id="Caminho_8761" data-name="Caminho 8761" d="M20.658,287.311v-6.016a.531.531,0,1,0-.3,0v5.89L18,289.412v-2.145a.535.535,0,1,0-.682-.511.526.526,0,0,0,.379.506v7.386l.3.17H18v-4.983l2.64-2.508.017-.016Z" transform="translate(-7.795 -258.984)" fill="#fff"/>
    <path id="Caminho_8762" data-name="Caminho 8762" d="M23.32,298.22a.54.54,0,0,0-.539.539.524.524,0,0,0,.055.225l-.616.616v4.477l.3.176v-4.526l.517-.517a.5.5,0,0,0,.28.088.539.539,0,1,0,0-1.078" transform="translate(-10 -267.071)" fill="#fff"/>
    <path id="Caminho_8763" data-name="Caminho 8763" d="M13.479,275.09a.536.536,0,0,0-.17,1.045v14.8l.3.176V276.146a.53.53,0,0,0,.4-.511.54.54,0,0,0-.539-.539" transform="translate(-5.824 -256.661)" fill="#fff"/>
    <path id="Caminho_8764" data-name="Caminho 8764" d="M31.37,261.509l17.252-9.96L31.37,241.59Z" transform="translate(-14.118 -241.585)" fill="#00707e"/>
    <g id="Grupo_3357" data-name="Grupo 3357" transform="translate(83.482 31.605)">
      <path id="Caminho_8765" data-name="Caminho 8765" d="M151.8,303.78a3.952,3.952,0,0,1,4.059-4.02,3.819,3.819,0,0,1,3.344,1.87l-.522.3a3.183,3.183,0,0,0-2.821-1.606,3.454,3.454,0,1,0,0,6.907,3.19,3.19,0,0,0,2.843-1.639l.522.3a3.81,3.81,0,0,1-3.366,1.9,3.953,3.953,0,0,1-4.059-4.026Z" transform="translate(-151.8 -299.37)" fill="#00545c"/>
      <path id="Caminho_8766" data-name="Caminho 8766" d="M170.537,303.34v.379h-3.6v-.291L169.1,301.5a3.36,3.36,0,0,0,.594-.66.95.95,0,0,0,.159-.522.763.763,0,0,0-.341-.638,1.7,1.7,0,0,0-1.006-.247,1.864,1.864,0,0,0-1.424.522l-.313-.247a2.2,2.2,0,0,1,1.76-.66,2.121,2.121,0,0,1,1.309.346,1.07,1.07,0,0,1,.451.891,1.322,1.322,0,0,1-.181.671,3.436,3.436,0,0,1-.687.759l-1.8,1.617h2.92Z" transform="translate(-158.537 -299.05)" fill="#00545c"/>
      <path id="Caminho_8767" data-name="Caminho 8767" d="M181.5,303.926V309.5h-.566v-1.259a2.677,2.677,0,0,1-2.4,1.38,2.909,2.909,0,0,1,0-5.818,2.677,2.677,0,0,1,2.4,1.38v-1.259h.566Zm-.566,2.788a2.359,2.359,0,1,0-2.354,2.376A2.337,2.337,0,0,0,180.935,306.715Z" transform="translate(-162.534 -301.188)" fill="#00545c"/>
      <path id="Caminho_8768" data-name="Caminho 8768" d="M194.561,303.926V309.5h-.566v-1.259a2.677,2.677,0,0,1-2.4,1.38,2.909,2.909,0,0,1,0-5.818,2.677,2.677,0,0,1,2.4,1.38v-1.259h.566Zm-.566,2.788a2.359,2.359,0,1,0-2.354,2.376A2.337,2.337,0,0,0,193.995,306.715Z" transform="translate(-168.412 -301.188)" fill="#00545c"/>
      <path id="Caminho_8769" data-name="Caminho 8769" d="M201.83,305.959l.511-.3a2.214,2.214,0,0,0,2.337,1.573c1.281,0,1.963-.671,1.963-1.562,0-.935-.825-1.292-2.018-1.672-1.3-.423-2.475-.792-2.475-2.15a2.151,2.151,0,0,1,2.365-2.1,2.574,2.574,0,0,1,2.508,1.639l-.5.28a2.049,2.049,0,0,0-2.007-1.347c-1.116,0-1.76.638-1.76,1.507,0,.935.792,1.226,1.908,1.595,1.38.456,2.585.891,2.585,2.238s-1.012,2.139-2.563,2.139a2.8,2.8,0,0,1-2.854-1.837Z" transform="translate(-174.316 -299.365)" fill="#00545c"/>
    </g>
  </g>
</svg>
